<svg viewBox="0 0 1200 100" xmlns="http://www.w3.org/2000/svg" role="img" aria-label="Zephyr supported platforms">
  <defs>
    <style><![CDATA[
      @import url('https://fonts.googleapis.com/css2?family=Space+Grotesk:wght@500;600;700&family=JetBrains+Mono:wght@300;400;500;700&display=swap');
    .display { font-family: 'Space Grotesk', 'Segoe UI', Helvetica, Arial, sans-serif; }
    .mono { font-family: 'JetBrains Mono', 'SF Mono', Consolas, monospace; }
    ]]></style>
    <linearGradient id="pf_bg" x1="0" y1="0" x2="0" y2="1">
      <stop offset="0%" stop-color="#1A1B2E"/>
      <stop offset="100%" stop-color="#0A0A14"/>
    </linearGradient>
    <clipPath id="pf_frame"><rect width="1200" height="100" rx="20"/></clipPath>
  </defs>
  <rect width="1200" height="100" rx="20" fill="url(#pf_bg)"/>
  <g clip-path="url(#pf_frame)">
    
    <g transform="translate(0.0,18)">
      <rect width="176" height="64" rx="16" fill="#FFFFFF" opacity="0.03"/>
      <rect width="176" height="64" rx="16" fill="none" stroke="#FFFFFF" stroke-opacity="0.08"/>
      <g transform="translate(24,32.0)"><rect x="-7" y="-10" width="14" height="20" rx="3" fill="none" stroke="#FFFFFF" stroke-opacity="0.75" stroke-width="1.4"/><path d="M-4.5,6.3 L-2.8,4.8 L-2.8,7.8 Z" fill="#FFFFFF" opacity="0.55"/><circle cx="0" cy="6.3" r="1.1" fill="none" stroke="#FFFFFF" stroke-opacity="0.55" stroke-width="1"/><rect x="3" y="5.4" width="1.8" height="1.8" fill="none" stroke="#FFFFFF" stroke-opacity="0.55" stroke-width="1"/></g>
      <text x="44" y="36.5" class="mono" font-size="13" letter-spacing="1.5" fill="#FFFFFF" opacity="0.75">ANDROID</text>
      <circle cx="162" cy="14" r="3.5" fill="#92FE9D">
        <animate attributeName="opacity" values="0.15;1;0.15" dur="3s" begin="0.0s" repeatCount="indefinite"/>
      </circle>
    </g>
    <g transform="translate(195.2,18)">
      <rect width="176" height="64" rx="16" fill="#FFFFFF" opacity="0.03"/>
      <rect width="176" height="64" rx="16" fill="none" stroke="#FFFFFF" stroke-opacity="0.08"/>
      <g transform="translate(24,32.0)"><rect x="-7" y="-10" width="14" height="20" rx="3" fill="none" stroke="#FFFFFF" stroke-opacity="0.75" stroke-width="1.4"/><rect x="-3" y="-10" width="6" height="2.4" rx="1.2" fill="#FFFFFF" opacity="0.55"/></g>
      <text x="44" y="36.5" class="mono" font-size="13" letter-spacing="1.5" fill="#FFFFFF" opacity="0.75">IOS</text>
      <circle cx="162" cy="14" r="3.5" fill="#92FE9D">
        <animate attributeName="opacity" values="0.15;1;0.15" dur="3s" begin="0.5s" repeatCount="indefinite"/>
      </circle>
    </g>
    <g transform="translate(390.4,18)">
      <rect width="176" height="64" rx="16" fill="#FFFFFF" opacity="0.03"/>
      <rect width="176" height="64" rx="16" fill="none" stroke="#FFFFFF" stroke-opacity="0.08"/>
      <g transform="translate(24,32.0)"><rect x="-9" y="-9" width="18" height="13" rx="1.5" fill="none" stroke="#FFFFFF" stroke-opacity="0.75" stroke-width="1.4"/><line x1="-9" y1="-2.5" x2="9" y2="-2.5" stroke="#FFFFFF" stroke-opacity="0.4" stroke-width="1"/><line x1="0" y1="-9" x2="0" y2="4" stroke="#FFFFFF" stroke-opacity="0.4" stroke-width="1"/><line x1="-4" y1="4" x2="4" y2="4" stroke="#FFFFFF" stroke-opacity="0.75" stroke-width="1.4"/><line x1="0" y1="4" x2="0" y2="7.5" stroke="#FFFFFF" stroke-opacity="0.75" stroke-width="1.4"/><line x1="-5" y1="7.5" x2="5" y2="7.5" stroke="#FFFFFF" stroke-opacity="0.75" stroke-width="1.4"/></g>
      <text x="44" y="36.5" class="mono" font-size="13" letter-spacing="1.5" fill="#FFFFFF" opacity="0.75">WINDOWS</text>
      <circle cx="162" cy="14" r="3.5" fill="#92FE9D">
        <animate attributeName="opacity" values="0.15;1;0.15" dur="3s" begin="1.0s" repeatCount="indefinite"/>
      </circle>
    </g>
    <g transform="translate(585.5999999999999,18)">
      <rect width="176" height="64" rx="16" fill="#FFFFFF" opacity="0.03"/>
      <rect width="176" height="64" rx="16" fill="none" stroke="#FFFFFF" stroke-opacity="0.08"/>
      <g transform="translate(24,32.0)"><rect x="-9" y="-9" width="18" height="12" rx="1.5" fill="none" stroke="#FFFFFF" stroke-opacity="0.75" stroke-width="1.4"/><circle cx="0" cy="-3.5" r="0.8" fill="#FFFFFF" opacity="0.5"/><path d="M-11,3 L11,3 L13,8 L-13,8 Z" fill="none" stroke="#FFFFFF" stroke-opacity="0.5" stroke-width="1.2" stroke-linejoin="round"/></g>
      <text x="44" y="36.5" class="mono" font-size="13" letter-spacing="1.5" fill="#FFFFFF" opacity="0.75">MACOS</text>
      <circle cx="162" cy="14" r="3.5" fill="#92FE9D">
        <animate attributeName="opacity" values="0.15;1;0.15" dur="3s" begin="1.5s" repeatCount="indefinite"/>
      </circle>
    </g>
    <g transform="translate(780.8,18)">
      <rect width="176" height="64" rx="16" fill="#FFFFFF" opacity="0.03"/>
      <rect width="176" height="64" rx="16" fill="none" stroke="#FFFFFF" stroke-opacity="0.08"/>
      <g transform="translate(24,32.0)"><rect x="-9" y="-9" width="18" height="18" rx="2" fill="none" stroke="#FFFFFF" stroke-opacity="0.75" stroke-width="1.4"/><line x1="-9" y1="-4" x2="9" y2="-4" stroke="#FFFFFF" stroke-opacity="0.4" stroke-width="1"/><circle cx="-6" cy="-6.5" r="0.9" fill="#FFFFFF" opacity="0.45"/><circle cx="-3" cy="-6.5" r="0.9" fill="#FFFFFF" opacity="0.45"/><path d="M-5,1 L-2,3.5 L-5,6" fill="none" stroke="#92FE9D" stroke-width="1.5" stroke-linecap="round" stroke-linejoin="round"/><line x1="0" y1="6" x2="5" y2="6" stroke="#FFFFFF" stroke-opacity="0.6" stroke-width="1.5" stroke-linecap="round"/></g>
      <text x="44" y="36.5" class="mono" font-size="13" letter-spacing="1.5" fill="#FFFFFF" opacity="0.75">LINUX</text>
      <circle cx="162" cy="14" r="3.5" fill="#92FE9D">
        <animate attributeName="opacity" values="0.15;1;0.15" dur="3s" begin="2.0s" repeatCount="indefinite"/>
      </circle>
    </g>
    <g transform="translate(976.0,18)">
      <rect width="176" height="64" rx="16" fill="#FFFFFF" opacity="0.03"/>
      <rect width="176" height="64" rx="16" fill="none" stroke="#FFFFFF" stroke-opacity="0.08"/>
      <g transform="translate(24,32.0)"><rect x="-9" y="-9" width="18" height="18" rx="2" fill="none" stroke="#FFFFFF" stroke-opacity="0.75" stroke-width="1.4"/><line x1="-9" y1="-4" x2="9" y2="-4" stroke="#FFFFFF" stroke-opacity="0.4" stroke-width="1"/><circle cx="-6" cy="-6.5" r="0.9" fill="#FFFFFF" opacity="0.45"/><circle cx="-3" cy="-6.5" r="0.9" fill="#FFFFFF" opacity="0.45"/><circle cx="0" cy="3.5" r="5.5" fill="none" stroke="#00C9FF" stroke-width="1.2"/><ellipse cx="0" cy="3.5" rx="2.2" ry="5.5" fill="none" stroke="#00C9FF" stroke-width="1"/><line x1="-5.5" y1="3.5" x2="5.5" y2="3.5" stroke="#00C9FF" stroke-width="1"/></g>
      <text x="44" y="36.5" class="mono" font-size="13" letter-spacing="1.5" fill="#FFFFFF" opacity="0.75">WEB</text>
      <circle cx="162" cy="14" r="3.5" fill="#92FE9D">
        <animate attributeName="opacity" values="0.15;1;0.15" dur="3s" begin="2.5s" repeatCount="indefinite"/>
      </circle>
    </g>
  </g>
  <rect x="0.75" y="0.75" width="1198.5" height="98.5" rx="19.5" fill="none" stroke="#FFFFFF" stroke-opacity="0.05"/>
</svg>